<mxfile host="app.diagrams.net" agent="Mozilla/5.0 (Windows NT 10.0; Win64; x64) AppleWebKit/537.36 (KHTML, like Gecko) Chrome/128.0.0.0 Safari/537.36 OPR/114.0.0.0 (Edition std-1)" version="26.0.16">
  <diagram name="Page-1" id="oLV681QXpyzKE6uCH3lM">
    <mxGraphModel dx="353" dy="462" grid="1" gridSize="10" guides="1" tooltips="1" connect="1" arrows="1" fold="1" page="0" pageScale="1" pageWidth="827" pageHeight="1169" math="0" shadow="0">
      <root>
        <mxCell id="0" />
        <mxCell id="1" parent="0" />
        <mxCell id="eXFqYC0WTwXGM-SM4TF6-25" style="rounded=0;orthogonalLoop=1;jettySize=auto;html=1;fontFamily=Helvetica;fontSize=11;fontColor=default;labelBackgroundColor=default;resizable=0;entryX=0.222;entryY=0.908;entryDx=0;entryDy=0;entryPerimeter=0;exitX=0.253;exitY=0.07;exitDx=0;exitDy=0;exitPerimeter=0;" edge="1" parent="1" source="eXFqYC0WTwXGM-SM4TF6-1" target="eXFqYC0WTwXGM-SM4TF6-2">
          <mxGeometry relative="1" as="geometry">
            <mxPoint x="460" y="150" as="targetPoint" />
            <mxPoint x="490" y="220" as="sourcePoint" />
            <Array as="points">
              <mxPoint x="470" y="150" />
            </Array>
          </mxGeometry>
        </mxCell>
        <mxCell id="eXFqYC0WTwXGM-SM4TF6-26" value="&lt;font style=&quot;font-size: 8px;&quot;&gt;measure power&lt;/font&gt;&lt;div&gt;&lt;font style=&quot;font-size: 8px;&quot;&gt;usage&lt;/font&gt;&lt;/div&gt;" style="edgeLabel;html=1;align=center;verticalAlign=middle;resizable=0;points=[];fontFamily=Helvetica;fontSize=11;fontColor=default;labelBackgroundColor=default;fillColor=none;gradientColor=none;" vertex="1" connectable="0" parent="eXFqYC0WTwXGM-SM4TF6-25">
          <mxGeometry x="0.0381" relative="1" as="geometry">
            <mxPoint x="10" y="-30" as="offset" />
          </mxGeometry>
        </mxCell>
        <mxCell id="eXFqYC0WTwXGM-SM4TF6-1" value="KAFFEKNEKT&amp;nbsp;&lt;div&gt;3000&lt;/div&gt;" style="ellipse;whiteSpace=wrap;html=1;fillColor=#D5E8D5;strokeColor=#82b366;" vertex="1" parent="1">
          <mxGeometry x="460" y="220" width="120" height="80" as="geometry" />
        </mxCell>
        <mxCell id="eXFqYC0WTwXGM-SM4TF6-2" value="Espresso&lt;div&gt;machine(?)&lt;/div&gt;" style="ellipse;whiteSpace=wrap;html=1;" vertex="1" parent="1">
          <mxGeometry x="470" y="10" width="120" height="80" as="geometry" />
        </mxCell>
        <mxCell id="eXFqYC0WTwXGM-SM4TF6-3" value="Users" style="ellipse;whiteSpace=wrap;html=1;" vertex="1" parent="1">
          <mxGeometry x="590" y="390" width="120" height="80" as="geometry" />
        </mxCell>
        <mxCell id="eXFqYC0WTwXGM-SM4TF6-4" style="rounded=0;orthogonalLoop=1;jettySize=auto;html=1;exitX=0.96;exitY=0.283;exitDx=0;exitDy=0;entryX=1;entryY=1;entryDx=0;entryDy=0;exitPerimeter=0;" edge="1" parent="1" source="eXFqYC0WTwXGM-SM4TF6-1" target="eXFqYC0WTwXGM-SM4TF6-2">
          <mxGeometry relative="1" as="geometry">
            <Array as="points">
              <mxPoint x="600" y="150" />
            </Array>
          </mxGeometry>
        </mxCell>
        <mxCell id="eXFqYC0WTwXGM-SM4TF6-11" value="&lt;font style=&quot;font-size: 8px;&quot;&gt;Measure temperature&lt;/font&gt;" style="edgeLabel;html=1;align=center;verticalAlign=middle;resizable=0;points=[];" vertex="1" connectable="0" parent="eXFqYC0WTwXGM-SM4TF6-4">
          <mxGeometry x="-0.0432" y="1" relative="1" as="geometry">
            <mxPoint x="-6" y="48" as="offset" />
          </mxGeometry>
        </mxCell>
        <mxCell id="eXFqYC0WTwXGM-SM4TF6-5" value="" style="endArrow=classic;html=1;rounded=0;exitX=0.796;exitY=0.899;exitDx=0;exitDy=0;exitPerimeter=0;entryX=0.197;entryY=0.107;entryDx=0;entryDy=0;entryPerimeter=0;" edge="1" parent="1" source="eXFqYC0WTwXGM-SM4TF6-1" target="eXFqYC0WTwXGM-SM4TF6-3">
          <mxGeometry width="50" height="50" relative="1" as="geometry">
            <mxPoint x="640" y="230" as="sourcePoint" />
            <mxPoint x="710" y="240" as="targetPoint" />
          </mxGeometry>
        </mxCell>
        <mxCell id="eXFqYC0WTwXGM-SM4TF6-7" value="&lt;font style=&quot;font-size: 8px;&quot;&gt;Show instructions&lt;/font&gt;" style="edgeLabel;html=1;align=center;verticalAlign=middle;resizable=0;points=[];" vertex="1" connectable="0" parent="eXFqYC0WTwXGM-SM4TF6-5">
          <mxGeometry x="-0.0762" y="-4" relative="1" as="geometry">
            <mxPoint x="-2" y="-13" as="offset" />
          </mxGeometry>
        </mxCell>
        <mxCell id="eXFqYC0WTwXGM-SM4TF6-9" value="" style="endArrow=classic;html=1;rounded=0;entryX=0.413;entryY=1.011;entryDx=0;entryDy=0;exitX=0.034;exitY=0.32;exitDx=0;exitDy=0;exitPerimeter=0;entryPerimeter=0;" edge="1" parent="1" source="eXFqYC0WTwXGM-SM4TF6-3" target="eXFqYC0WTwXGM-SM4TF6-1">
          <mxGeometry width="50" height="50" relative="1" as="geometry">
            <mxPoint x="700" y="310" as="sourcePoint" />
            <mxPoint x="750" y="260" as="targetPoint" />
            <Array as="points">
              <mxPoint x="530" y="390" />
            </Array>
          </mxGeometry>
        </mxCell>
        <mxCell id="eXFqYC0WTwXGM-SM4TF6-10" value="&lt;font style=&quot;font-size: 8px;&quot;&gt;Send cleaning update&lt;/font&gt;" style="edgeLabel;html=1;align=center;verticalAlign=middle;resizable=0;points=[];" vertex="1" connectable="0" parent="eXFqYC0WTwXGM-SM4TF6-9">
          <mxGeometry x="0.0733" y="-1" relative="1" as="geometry">
            <mxPoint x="3" y="17" as="offset" />
          </mxGeometry>
        </mxCell>
        <mxCell id="eXFqYC0WTwXGM-SM4TF6-13" value="" style="endArrow=classic;html=1;rounded=0;fontFamily=Helvetica;fontSize=11;fontColor=default;labelBackgroundColor=default;resizable=0;exitX=0.5;exitY=0;exitDx=0;exitDy=0;entryX=0.367;entryY=0.963;entryDx=0;entryDy=0;entryPerimeter=0;" edge="1" parent="1" source="eXFqYC0WTwXGM-SM4TF6-1" target="eXFqYC0WTwXGM-SM4TF6-2">
          <mxGeometry width="50" height="50" relative="1" as="geometry">
            <mxPoint x="480" y="230" as="sourcePoint" />
            <mxPoint x="520" y="100" as="targetPoint" />
          </mxGeometry>
        </mxCell>
        <mxCell id="eXFqYC0WTwXGM-SM4TF6-14" value="&lt;font style=&quot;font-size: 8px;&quot;&gt;Measure pressure&lt;/font&gt;" style="edgeLabel;html=1;align=center;verticalAlign=middle;resizable=0;points=[];fontFamily=Helvetica;fontSize=11;fontColor=default;labelBackgroundColor=default;fillColor=none;gradientColor=none;" vertex="1" connectable="0" parent="eXFqYC0WTwXGM-SM4TF6-13">
          <mxGeometry relative="1" as="geometry">
            <mxPoint x="3" y="-3" as="offset" />
          </mxGeometry>
        </mxCell>
        <mxCell id="eXFqYC0WTwXGM-SM4TF6-16" value="" style="endArrow=classic;html=1;rounded=0;fontFamily=Helvetica;fontSize=11;fontColor=default;labelBackgroundColor=default;resizable=0;exitX=0.74;exitY=0.061;exitDx=0;exitDy=0;exitPerimeter=0;entryX=0.734;entryY=0.954;entryDx=0;entryDy=0;entryPerimeter=0;" edge="1" parent="1" source="eXFqYC0WTwXGM-SM4TF6-1" target="eXFqYC0WTwXGM-SM4TF6-2">
          <mxGeometry width="50" height="50" relative="1" as="geometry">
            <mxPoint x="470" y="238" as="sourcePoint" />
            <mxPoint x="330" y="230" as="targetPoint" />
          </mxGeometry>
        </mxCell>
        <mxCell id="eXFqYC0WTwXGM-SM4TF6-17" value="&lt;font style=&quot;font-size: 8px;&quot;&gt;Detect coffee making&lt;/font&gt;&lt;div&gt;&lt;font style=&quot;font-size: 8px;&quot;&gt;/machine usage&lt;/font&gt;&lt;/div&gt;" style="edgeLabel;html=1;align=center;verticalAlign=middle;resizable=0;points=[];fontFamily=Helvetica;fontSize=11;fontColor=default;labelBackgroundColor=default;fillColor=none;gradientColor=none;" vertex="1" connectable="0" parent="eXFqYC0WTwXGM-SM4TF6-16">
          <mxGeometry x="0.0089" y="1" relative="1" as="geometry">
            <mxPoint y="25" as="offset" />
          </mxGeometry>
        </mxCell>
        <mxCell id="eXFqYC0WTwXGM-SM4TF6-18" value="" style="endArrow=classic;html=1;rounded=0;fontFamily=Helvetica;fontSize=11;fontColor=default;labelBackgroundColor=default;resizable=0;exitX=0.947;exitY=0.727;exitDx=0;exitDy=0;exitPerimeter=0;entryX=0.401;entryY=-0.009;entryDx=0;entryDy=0;entryPerimeter=0;" edge="1" parent="1" source="eXFqYC0WTwXGM-SM4TF6-1" target="eXFqYC0WTwXGM-SM4TF6-3">
          <mxGeometry width="50" height="50" relative="1" as="geometry">
            <mxPoint x="610" y="230" as="sourcePoint" />
            <mxPoint x="690" y="180" as="targetPoint" />
          </mxGeometry>
        </mxCell>
        <mxCell id="eXFqYC0WTwXGM-SM4TF6-19" value="&lt;font style=&quot;font-size: 8px;&quot;&gt;Display statistics&lt;/font&gt;" style="edgeLabel;html=1;align=center;verticalAlign=middle;resizable=0;points=[];fontFamily=Helvetica;fontSize=11;fontColor=default;labelBackgroundColor=default;fillColor=none;gradientColor=none;" vertex="1" connectable="0" parent="eXFqYC0WTwXGM-SM4TF6-18">
          <mxGeometry x="-0.0114" relative="1" as="geometry">
            <mxPoint x="-15" y="-33" as="offset" />
          </mxGeometry>
        </mxCell>
        <mxCell id="eXFqYC0WTwXGM-SM4TF6-20" value="" style="endArrow=classic;html=1;rounded=0;fontFamily=Helvetica;fontSize=11;fontColor=default;labelBackgroundColor=default;resizable=0;exitX=0;exitY=0;exitDx=0;exitDy=0;entryX=0.024;entryY=0.658;entryDx=0;entryDy=0;entryPerimeter=0;" edge="1" parent="1" source="eXFqYC0WTwXGM-SM4TF6-1" target="eXFqYC0WTwXGM-SM4TF6-2">
          <mxGeometry width="50" height="50" relative="1" as="geometry">
            <mxPoint x="280" y="310" as="sourcePoint" />
            <mxPoint x="330" y="260" as="targetPoint" />
            <Array as="points">
              <mxPoint x="440" y="150" />
            </Array>
          </mxGeometry>
        </mxCell>
        <mxCell id="eXFqYC0WTwXGM-SM4TF6-21" value="&lt;font style=&quot;font-size: 8px;&quot;&gt;Detect coffee&amp;nbsp;&lt;/font&gt;&lt;div&gt;&lt;font style=&quot;font-size: 8px;&quot;&gt;brewing time&lt;/font&gt;&lt;/div&gt;" style="edgeLabel;html=1;align=center;verticalAlign=middle;resizable=0;points=[];fontFamily=Helvetica;fontSize=11;fontColor=default;labelBackgroundColor=default;fillColor=none;gradientColor=none;" vertex="1" connectable="0" parent="eXFqYC0WTwXGM-SM4TF6-20">
          <mxGeometry x="0.0265" y="-3" relative="1" as="geometry">
            <mxPoint x="-4" y="33" as="offset" />
          </mxGeometry>
        </mxCell>
        <mxCell id="eXFqYC0WTwXGM-SM4TF6-22" style="rounded=0;orthogonalLoop=1;jettySize=auto;html=1;exitX=1;exitY=0.5;exitDx=0;exitDy=0;entryX=0.5;entryY=0;entryDx=0;entryDy=0;fontFamily=Helvetica;fontSize=11;fontColor=default;labelBackgroundColor=default;resizable=0;" edge="1" parent="1" source="eXFqYC0WTwXGM-SM4TF6-1" target="eXFqYC0WTwXGM-SM4TF6-3">
          <mxGeometry relative="1" as="geometry">
            <Array as="points">
              <mxPoint x="630" y="290" />
            </Array>
          </mxGeometry>
        </mxCell>
        <mxCell id="eXFqYC0WTwXGM-SM4TF6-23" value="&lt;font style=&quot;font-size: 8px;&quot;&gt;Show notifications/&lt;/font&gt;&lt;div&gt;&lt;font style=&quot;font-size: 8px;&quot;&gt;error messages&lt;/font&gt;&lt;/div&gt;" style="edgeLabel;html=1;align=center;verticalAlign=middle;resizable=0;points=[];fontFamily=Helvetica;fontSize=11;fontColor=default;labelBackgroundColor=default;fillColor=none;gradientColor=none;" vertex="1" connectable="0" parent="eXFqYC0WTwXGM-SM4TF6-22">
          <mxGeometry x="0.095" relative="1" as="geometry">
            <mxPoint x="-16" y="-47" as="offset" />
          </mxGeometry>
        </mxCell>
        <mxCell id="eXFqYC0WTwXGM-SM4TF6-30" value="" style="endArrow=classic;html=1;rounded=0;fontFamily=Helvetica;fontSize=11;fontColor=default;labelBackgroundColor=default;resizable=0;exitX=0.092;exitY=0.206;exitDx=0;exitDy=0;exitPerimeter=0;entryX=0.606;entryY=0.988;entryDx=0;entryDy=0;entryPerimeter=0;" edge="1" parent="1" source="eXFqYC0WTwXGM-SM4TF6-3" target="eXFqYC0WTwXGM-SM4TF6-1">
          <mxGeometry relative="1" as="geometry">
            <mxPoint x="400" y="410" as="sourcePoint" />
            <mxPoint x="500" y="410" as="targetPoint" />
            <Array as="points">
              <mxPoint x="550" y="360" />
            </Array>
          </mxGeometry>
        </mxCell>
        <mxCell id="eXFqYC0WTwXGM-SM4TF6-31" value="&lt;font style=&quot;font-size: 8px;&quot;&gt;Main screen&lt;/font&gt;&lt;div&gt;&lt;font style=&quot;font-size: 8px;&quot;&gt;customization&lt;/font&gt;&lt;/div&gt;" style="edgeLabel;resizable=0;html=1;;align=center;verticalAlign=middle;fontFamily=Helvetica;fontSize=11;fontColor=default;labelBackgroundColor=default;fillColor=none;gradientColor=none;" connectable="0" vertex="1" parent="eXFqYC0WTwXGM-SM4TF6-30">
          <mxGeometry relative="1" as="geometry">
            <mxPoint x="8" y="-2" as="offset" />
          </mxGeometry>
        </mxCell>
      </root>
    </mxGraphModel>
  </diagram>
</mxfile>
